<svg width="48" height="48" viewBox="0 0 48 48" fill="none" xmlns="http://www.w3.org/2000/svg">
<path d="M0 12C0 5.37258 5.37258 0 12 0H36C42.6274 0 48 5.37258 48 12V36C48 42.6274 42.6274 48 36 48H12C5.37258 48 0 42.6274 0 36V12Z" fill="#E0F5FE"/>
<path d="M24.25 14C24.99 14 25.6 14.61 25.6 15.35V16.83C25.6 17.37 25.26 18.04 24.93 18.38L22.03 20.94C21.63 21.28 21.36 21.95 21.36 22.49V25.39C21.36 25.79 21.09 26.33 20.75 26.54L19.81 27.15C18.93 27.69 17.72 27.08 17.72 26V22.43C17.72 21.96 17.45 21.35 17.18 21.01L14.62 18.31C14.28 17.97 14.01 17.37 14.01 16.96V15.41C14 14.61 14.61 14 15.35 14H24.25Z" stroke="#005376" stroke-width="1.5" stroke-linecap="round" stroke-linejoin="round"/>
<path d="M14 24V27C14 32 16 34 21 34H27C32 34 34 32 34 27V21C34 17.88 33.22 15.92 31.41 14.9C30.9 14.61 29.88 14.39 28.95 14.24" stroke="#005376" stroke-width="1.5" stroke-linecap="round" stroke-linejoin="round"/>
<path d="M25 25H30" stroke="#005376" stroke-width="1.5" stroke-linecap="round" stroke-linejoin="round"/>
<path d="M23 29H30" stroke="#005376" stroke-width="1.5" stroke-linecap="round" stroke-linejoin="round"/>
</svg>
