<svg width="51" height="50" viewBox="0 0 51 50" fill="none" xmlns="http://www.w3.org/2000/svg">
<rect x="0.800049" width="50" height="50" rx="6" fill="#E0F5FE"/>
<path d="M30.61 19.16C29.23 19.11 28.13 17.98 28.13 16.58C28.13 15.15 29.28 14 30.71 14C32.14 14 33.29 15.16 33.29 16.58C33.28 17.98 32.18 19.11 30.8 19.16C30.74 19.15 30.67 19.15 30.61 19.16Z" stroke="#292D32" stroke-width="1.5" stroke-linecap="round" stroke-linejoin="round"/>
<path d="M29.77 26.44C31.14 26.67 32.65 26.43 33.71 25.72C35.12 24.78 35.12 23.24 33.71 22.3C32.64 21.59 31.11 21.35 29.74 21.59" stroke="#292D32" stroke-width="1.5" stroke-linecap="round" stroke-linejoin="round"/>
<path d="M18.96 19.16C20.34 19.11 21.44 17.98 21.44 16.58C21.44 15.15 20.29 14 18.86 14C17.43 14 16.28 15.16 16.28 16.58C16.29 17.98 17.39 19.11 18.77 19.16C18.83 19.15 18.9 19.15 18.96 19.16Z" stroke="#292D32" stroke-width="1.5" stroke-linecap="round" stroke-linejoin="round"/>
<path d="M19.8 26.44C18.43 26.67 16.92 26.43 15.86 25.72C14.45 24.78 14.45 23.24 15.86 22.3C16.93 21.59 18.46 21.35 19.83 21.59" stroke="#292D32" stroke-width="1.5" stroke-linecap="round" stroke-linejoin="round"/>
<path d="M24.61 26.63C23.23 26.58 22.13 25.45 22.13 24.05C22.13 22.62 23.28 21.47 24.71 21.47C26.14 21.47 27.29 22.63 27.29 24.05C27.28 25.45 26.18 26.59 24.8 26.63C24.74 26.62 24.67 26.62 24.61 26.63Z" stroke="#292D32" stroke-width="1.5" stroke-linecap="round" stroke-linejoin="round"/>
<path d="M21.89 33.2C23.49 34.27 26.11 34.27 27.71 33.2C29.12 32.26 29.12 30.72 27.71 29.78C26.12 28.72 23.49 28.72 21.89 29.78C20.48 30.72 20.48 32.26 21.89 33.2Z" stroke="#292D32" stroke-width="1.5" stroke-linecap="round" stroke-linejoin="round"/>
</svg>
