<svg width="51" height="50" viewBox="0 0 51 50" fill="none" xmlns="http://www.w3.org/2000/svg">
<rect x="0.600037" width="50" height="50" rx="6" fill="#E0F5FE"/>
<path d="M24.4301 22.87C22.0501 22.79 20.1601 20.84 20.1601 18.44C20.1601 15.99 22.1401 14 24.6001 14C27.0501 14 29.0401 15.99 29.0401 18.44C29.0301 20.84 27.1401 22.79 24.7601 22.87C24.6601 22.86 24.5401 22.86 24.4301 22.87Z" stroke="#292D32" stroke-width="1.5" stroke-linecap="round" stroke-linejoin="round"/>
<path d="M19.76 32.43C22.51 34.27 27.02 34.27 29.77 32.43C32.19 30.81 32.19 28.17 29.77 26.56C27.03 24.73 22.52 24.73 19.76 26.56C17.34 28.18 17.34 30.82 19.76 32.43Z" stroke="#292D32" stroke-width="1.5" stroke-linecap="round" stroke-linejoin="round"/>
</svg>
