<svg width="50" height="50" viewBox="0 0 50 50" fill="none" xmlns="http://www.w3.org/2000/svg">
<rect width="50" height="50" rx="6" fill="#E0F5FE"/>
<path fill-rule="evenodd" clip-rule="evenodd" d="M25.2422 9C26.2048 9 27.0068 9.67945 27.1835 10.5794C27.4255 10.4208 27.7153 10.3284 28.0269 10.3284C28.8739 10.3284 29.5605 11.0107 29.5605 11.8523C29.5605 11.9492 29.5514 12.044 29.534 12.1359C29.774 11.9812 30.0603 11.8913 30.3677 11.8913C31.2147 11.8913 31.9013 12.5736 31.9013 13.4151C31.9013 13.7262 31.8075 14.0155 31.6465 14.2566C31.7294 14.2428 31.8145 14.2357 31.9013 14.2357C32.7483 14.2357 33.435 14.9179 33.435 15.7595C33.435 16.2381 33.2128 16.6653 32.8654 16.9446C33.5189 17.1191 34 17.7119 34 18.4164C34 19.1395 33.493 19.745 32.8129 19.9011C33.493 20.0572 34 20.6627 34 21.3858C34 22.1183 33.4799 22.7301 32.7866 22.8764C33.1789 23.1524 33.435 23.6069 33.435 24.1209C33.435 24.9625 32.7483 25.6447 31.9013 25.6447C31.8331 25.6447 31.7659 25.6403 31.6999 25.6317C31.8281 25.8543 31.9013 26.1122 31.9013 26.3871C31.9013 27.2286 31.2147 27.9109 30.3677 27.9109C30.3381 27.9109 30.3087 27.91 30.2796 27.9084C30.3366 28.068 30.3677 28.2398 30.3677 28.4188C30.3677 29.2604 29.6811 29.9426 28.8341 29.9426C28.5322 29.9426 28.2506 29.8559 28.0133 29.7062C27.919 30.3699 27.3467 30.8803 26.6547 30.8803C26.2074 30.8803 25.81 30.667 25.5595 30.3369C25.4374 30.6464 25.2328 30.915 24.9724 31.1164C25.1833 31.2487 25.3229 31.4785 25.3229 31.7399V32.3651C25.3229 32.7751 24.9796 33.1074 24.5561 33.1074H24.4695C24.5983 33.2402 24.6771 33.4189 24.6771 33.6154V34.2405C24.6771 34.4854 24.5547 34.7026 24.3658 34.8378C24.5073 34.9595 24.5964 35.1369 24.5964 35.3345C24.5964 35.6539 24.3636 35.9206 24.0534 35.9843C24.4741 36.3828 24.7398 36.7483 24.8861 37.1059C25.0429 37.4893 25.0603 37.858 24.9919 38.2396C24.924 38.619 24.771 39.0123 24.5874 39.445C24.5467 39.5407 24.5046 39.6384 24.4615 39.7385C24.3204 40.0656 24.1683 40.4182 24.0228 40.8096C24.0256 40.8309 24.0283 40.8522 24.0308 40.8737C24.032 40.8829 24.0314 40.8919 24.0293 40.9004L24.0308 40.9128C24.036 40.9556 24.0043 40.9944 23.96 40.9995C23.9268 41.0032 23.8959 40.9868 23.8804 40.9603C23.873 40.9612 23.8653 40.9612 23.8575 40.96C23.8135 40.9533 23.7833 40.9134 23.7902 40.8707C23.8031 40.7907 23.8151 40.712 23.8263 40.6347C23.6876 39.8549 23.3972 39.2119 23.1271 38.6137C23.0698 38.4869 23.0135 38.3622 22.9597 38.2386C22.6299 37.4807 22.3963 36.7648 22.6821 35.9183C22.3919 35.7648 22.2385 35.4158 22.3735 35.0883C22.4194 34.9769 22.4943 34.8824 22.5877 34.8116C22.3776 34.6419 22.2647 34.3671 22.3287 34.0826L22.4693 33.4575C22.5012 33.3155 22.5738 33.1905 22.6738 33.0929C22.2381 33.0085 21.9544 32.5703 22.0958 32.14L22.3013 31.5148C22.3616 31.3311 22.4911 31.1826 22.6566 31.0926C22.2395 30.7558 21.9731 30.2432 21.9731 29.6691C21.9731 29.5743 21.9804 29.4812 21.9944 29.3902C21.7455 29.5892 21.4293 29.7082 21.0852 29.7082C20.2828 29.7082 19.6323 29.0609 19.6323 28.2625C19.6323 28.0509 19.678 27.8499 19.7601 27.6687C19.552 27.7736 19.3166 27.8327 19.0673 27.8327C18.2203 27.8327 17.5336 27.1505 17.5336 26.3089C17.5336 25.8994 17.6962 25.5276 17.9608 25.2538C17.9529 25.2539 17.9451 25.254 17.9372 25.254C17.0902 25.254 16.4036 24.5717 16.4036 23.7302C16.4036 23.2306 16.6455 22.7872 17.0193 22.5093C16.4253 22.2992 16 21.7356 16 21.0733C16 20.5031 16.3151 20.0061 16.7818 19.7448C16.3151 19.4835 16 18.9865 16 18.4164C16 17.6531 16.5648 17.0209 17.3017 16.9099C17.1422 16.6695 17.0493 16.3815 17.0493 16.072C17.0493 15.2305 17.736 14.5482 18.583 14.5482C18.6698 14.5482 18.7549 14.5554 18.8378 14.5692C18.6768 14.3281 18.583 14.0388 18.583 13.7277C18.583 12.8861 19.2696 12.2039 20.1166 12.2039C20.3118 12.2039 20.4984 12.2401 20.6701 12.3062C20.6251 12.1628 20.6009 12.0103 20.6009 11.8523C20.6009 11.0107 21.2875 10.3284 22.1345 10.3284C22.5839 10.3284 22.9882 10.5205 23.2687 10.8265C23.335 9.80681 24.1932 9 25.2422 9ZM26.4933 11.8523C26.4933 11.4999 26.6136 11.1755 26.8157 10.9174C26.7963 10.0638 26.0918 9.39072 25.2422 9.39072C24.3805 9.39072 23.6682 10.083 23.6682 10.9536C23.6682 11.8242 24.3805 12.5165 25.2422 12.5165C25.7495 12.5165 26.2052 12.2764 26.4941 11.9013C26.4935 11.885 26.4933 11.8687 26.4933 11.8523ZM21.581 13.2738C21.626 13.4172 21.6502 13.5696 21.6502 13.7277C21.6502 14.5693 20.9636 15.2515 20.1166 15.2515C20.0298 15.2515 19.9446 15.2444 19.8618 15.2306C20.0228 15.4717 20.1166 15.761 20.1166 16.072C20.1166 16.8353 19.5518 17.4675 18.8149 17.5785C18.9744 17.8189 19.0673 18.1069 19.0673 18.4164C19.0673 18.9865 18.7521 19.4835 18.2855 19.7448C18.7521 20.0061 19.0673 20.5031 19.0673 21.0733C19.0673 21.5728 18.8253 22.0162 18.4515 22.2941C19.0456 22.5042 19.4709 23.0678 19.4709 23.7302C19.4709 24.1397 19.3083 24.5115 19.0437 24.7853C19.0516 24.7852 19.0594 24.7851 19.0673 24.7851C19.9143 24.7851 20.6009 25.4673 20.6009 26.3089C20.6009 26.5418 20.5483 26.7625 20.4543 26.9599C20.6451 26.8682 20.8591 26.8168 21.0852 26.8168C21.8876 26.8168 22.5381 27.4641 22.5381 28.2625C22.5381 28.2927 22.5372 28.3228 22.5353 28.3525C22.8697 28.0308 23.3263 27.8327 23.8296 27.8327C24.5435 27.8327 25.1633 28.2313 25.4739 28.8158C25.713 28.4143 26.1523 28.1453 26.6547 28.1453C26.8898 28.1453 27.111 28.2042 27.3044 28.308C27.3616 27.5182 28.0246 26.895 28.8341 26.895C28.8637 26.895 28.8931 26.8958 28.9222 26.8975C28.8652 26.7379 28.8341 26.5661 28.8341 26.3871C28.8341 25.5455 29.5207 24.8632 30.3677 24.8632C30.436 24.8632 30.5032 24.8677 30.5691 24.8763C30.441 24.6536 30.3677 24.3957 30.3677 24.1209C30.3677 23.3884 30.8878 22.7766 31.5811 22.6303C31.1888 22.3543 30.9327 21.8998 30.9327 21.3858C30.9327 20.6627 31.4397 20.0572 32.1198 19.9011C31.4397 19.745 30.9327 19.1395 30.9327 18.4164C30.9327 17.9377 31.1549 17.5105 31.5023 17.2312C30.8488 17.0567 30.3677 16.4639 30.3677 15.7595C30.3677 15.4484 30.4615 15.1591 30.6225 14.918C30.5397 14.9318 30.4545 14.9389 30.3677 14.9389C29.5207 14.9389 28.8341 14.2567 28.8341 13.4151C28.8341 13.3182 28.8432 13.2234 28.8606 13.1315C28.6206 13.2862 28.3343 13.3761 28.0269 13.3761C27.3681 13.3761 26.8063 12.9633 26.5892 12.3839C26.2361 12.7086 25.7626 12.9072 25.2422 12.9072C24.5872 12.9072 24.0065 12.5926 23.6466 12.1081C23.5242 12.8278 22.8938 13.3761 22.1345 13.3761C21.9394 13.3761 21.7527 13.3398 21.581 13.2738ZM23.8296 31.5055C23.5994 31.5055 23.379 31.464 23.1755 31.3883H23.032C22.8738 31.3883 22.7338 31.4874 22.6859 31.6333L22.4804 32.2585C22.4059 32.4852 22.5807 32.7167 22.8265 32.7167H24.5561C24.7567 32.7167 24.9193 32.5593 24.9193 32.3651V31.7399C24.9193 31.5457 24.7567 31.3883 24.5561 31.3883H24.4837C24.2802 31.464 24.0598 31.5055 23.8296 31.5055ZM25.2825 29.6691C25.2825 30.2696 24.9173 30.7773 24.4029 30.9976H23.2563C22.7419 30.7773 22.3767 30.2696 22.3767 29.6691C22.3767 28.8627 23.0353 28.2234 23.8296 28.2234C24.6239 28.2234 25.2825 28.8627 25.2825 29.6691ZM27.6071 29.3332C27.4975 29.1882 27.4133 29.0231 27.3611 28.8444C27.1826 28.6534 26.9296 28.536 26.6547 28.536C26.1307 28.536 25.6861 28.9626 25.6861 29.5128C25.6861 30.063 26.1307 30.4896 26.6547 30.4896C27.1787 30.4896 27.6233 30.063 27.6233 29.5128C27.6233 29.4512 27.6178 29.3912 27.6071 29.3332ZM28.8341 29.5519C28.4974 29.5519 28.1903 29.4024 27.9815 29.1626C27.9326 28.9781 27.8459 28.8088 27.7303 28.6635C27.7131 28.5849 27.704 28.5031 27.704 28.4188C27.704 27.7834 28.2198 27.2857 28.8341 27.2857C28.9498 27.2857 29.062 27.3034 29.1679 27.3363C29.3278 27.5356 29.537 27.6941 29.7771 27.7938C29.8949 27.9718 29.9641 28.1861 29.9641 28.4188C29.9641 29.0542 29.4484 29.5519 28.8341 29.5519ZM30.0339 27.4696C29.874 27.2703 29.6648 27.1117 29.4247 27.0121C29.3069 26.834 29.2377 26.6198 29.2377 26.3871C29.2377 25.7516 29.7534 25.254 30.3677 25.254C30.982 25.254 31.4978 25.7516 31.4978 26.3871C31.4978 27.0225 30.982 27.5201 30.3677 27.5201C30.252 27.5201 30.1398 27.5025 30.0339 27.4696ZM27.2167 11.0624C27.1974 11.4094 27.0865 11.7323 26.9073 12.0079C26.9834 12.5671 27.4638 12.9853 28.0269 12.9853C28.6412 12.9853 29.157 12.4877 29.157 11.8523C29.157 11.2168 28.6412 10.7192 28.0269 10.7192C27.7123 10.7192 27.4236 10.8497 27.2167 11.0624ZM23.1084 38.1779C22.7829 37.4298 22.5706 36.762 22.8323 35.9764C22.8888 35.991 22.9485 35.9988 23.0107 35.9988H23.059C22.8055 36.8033 22.9342 37.4842 23.1585 38.2111C23.1872 38.3041 23.2174 38.3977 23.2486 38.4925C23.2004 38.3858 23.1534 38.2811 23.1084 38.1779ZM23.8935 40.0819C23.9644 39.3519 23.9469 38.7387 23.8488 38.1623C23.7341 37.4886 23.5088 36.8617 23.1811 36.1541C22.9852 36.8685 23.1033 37.4861 23.3132 38.1663C23.3655 38.3359 23.4238 38.5098 23.4841 38.6899C23.6249 39.1104 23.7773 39.5654 23.8935 40.0819ZM24.0081 38.1369C23.8854 37.416 23.6396 36.7506 23.2857 35.9988H23.5106C23.8646 36.7659 24.0274 37.4321 24.0637 38.1534C24.0714 38.3047 24.0734 38.4585 24.0705 38.6163C24.0556 38.4531 24.0348 38.2938 24.0081 38.1369ZM24.1006 40.0868C24.3782 39.3166 24.5808 38.6831 24.5895 38.0884C24.5989 37.4473 24.3818 36.8465 23.762 36.1704C24.0521 36.8577 24.1914 37.4786 24.225 38.1458C24.2545 38.733 24.2021 39.3548 24.1006 40.0868ZM24.751 38.0906C24.7613 37.3799 24.5077 36.7246 23.8194 35.9988H23.8404C23.8442 36.0052 23.8491 36.0112 23.855 36.0166C24.3164 36.4375 24.5914 36.8099 24.736 37.1635C24.8801 37.5155 24.8971 37.8544 24.8329 38.2129C24.7967 38.4148 24.7348 38.6225 24.6552 38.8421C24.7128 38.5826 24.7474 38.3337 24.751 38.0906ZM22.8636 33.5406C22.9 33.379 23.0477 33.2637 23.2185 33.2637H23.9103C24.1109 33.2637 24.2735 33.4212 24.2735 33.6154V34.2405C24.2735 34.4347 24.1109 34.5922 23.9103 34.5922H23.0779C22.8462 34.5922 22.6737 34.3849 22.723 34.1657L22.8636 33.5406ZM23.0107 35.061C22.8951 35.061 22.7912 35.1292 22.7483 35.2332C22.6743 35.4128 22.8109 35.6081 23.0107 35.6081H23.9103C24.0663 35.6081 24.1928 35.4856 24.1928 35.3345C24.1928 35.1835 24.0663 35.061 23.9103 35.061H23.0107ZM31.4978 13.4151C31.4978 14.0506 30.982 14.5482 30.3677 14.5482C29.7534 14.5482 29.2377 14.0506 29.2377 13.4151C29.2377 12.7797 29.7534 12.2821 30.3677 12.2821C30.982 12.2821 31.4978 12.7797 31.4978 13.4151ZM31.9013 16.8925C32.5156 16.8925 33.0314 16.3949 33.0314 15.7595C33.0314 15.124 32.5156 14.6264 31.9013 14.6264C31.2871 14.6264 30.7713 15.124 30.7713 15.7595C30.7713 16.3949 31.2871 16.8925 31.9013 16.8925ZM33.5964 18.4164C33.5964 19.0518 33.0807 19.5494 32.4664 19.5494C31.8521 19.5494 31.3363 19.0518 31.3363 18.4164C31.3363 17.7809 31.8521 17.2833 32.4664 17.2833C33.0807 17.2833 33.5964 17.7809 33.5964 18.4164ZM32.4664 22.5189C33.0807 22.5189 33.5964 22.0213 33.5964 21.3858C33.5964 20.7504 33.0807 20.2527 32.4664 20.2527C31.8521 20.2527 31.3363 20.7504 31.3363 21.3858C31.3363 22.0213 31.8521 22.5189 32.4664 22.5189ZM33.0314 24.1209C33.0314 24.7563 32.5156 25.254 31.9013 25.254C31.2871 25.254 30.7713 24.7563 30.7713 24.1209C30.7713 23.4855 31.2871 22.9878 31.9013 22.9878C32.5156 22.9878 33.0314 23.4855 33.0314 24.1209ZM21.2466 13.7277C21.2466 14.3631 20.7309 14.8608 20.1166 14.8608C19.5023 14.8608 18.9865 14.3631 18.9865 13.7277C18.9865 13.0923 19.5023 12.5946 20.1166 12.5946C20.7309 12.5946 21.2466 13.0923 21.2466 13.7277ZM16.4036 18.4164C16.4036 19.0518 16.9193 19.5494 17.5336 19.5494C18.1479 19.5494 18.6637 19.0518 18.6637 18.4164C18.6637 18.0744 18.5143 17.7723 18.2805 17.5662C18.0519 17.5208 17.8416 17.4248 17.6619 17.2906C17.6198 17.2857 17.5769 17.2833 17.5336 17.2833C16.9193 17.2833 16.4036 17.7809 16.4036 18.4164ZM18.6637 21.0733C18.6637 20.4378 18.1479 19.9402 17.5336 19.9402C16.9193 19.9402 16.4036 20.4378 16.4036 21.0733C16.4036 21.7087 16.9193 22.2063 17.5336 22.2063C18.1479 22.2063 18.6637 21.7087 18.6637 21.0733ZM17.836 16.9222C17.6023 16.7161 17.4529 16.414 17.4529 16.072C17.4529 15.4366 17.9687 14.9389 18.583 14.9389C19.1972 14.9389 19.713 15.4366 19.713 16.072C19.713 16.7075 19.1972 17.2051 18.583 17.2051C18.5397 17.2051 18.4968 17.2027 18.4547 17.1978C18.275 17.0636 18.0647 16.9676 17.836 16.9222ZM19.0673 23.7302C19.0673 24.3656 18.5515 24.8632 17.9372 24.8632C17.3229 24.8632 16.8072 24.3656 16.8072 23.7302C16.8072 23.0947 17.3229 22.5971 17.9372 22.5971C18.5515 22.5971 19.0673 23.0947 19.0673 23.7302ZM19.0673 27.442C19.6816 27.442 20.1973 26.9443 20.1973 26.3089C20.1973 25.6735 19.6816 25.1758 19.0673 25.1758C18.453 25.1758 17.9372 25.6735 17.9372 26.3089C17.9372 26.9443 18.453 27.442 19.0673 27.442ZM22.1345 28.2625C22.1345 28.8553 21.6544 29.3175 21.0852 29.3175C20.516 29.3175 20.0359 28.8553 20.0359 28.2625C20.0359 27.6697 20.516 27.2076 21.0852 27.2076C21.6544 27.2076 22.1345 27.6697 22.1345 28.2625ZM23.2646 11.8523C23.2646 12.4877 22.7488 12.9853 22.1345 12.9853C21.5202 12.9853 21.0045 12.4877 21.0045 11.8523C21.0045 11.2168 21.5202 10.7192 22.1345 10.7192C22.7488 10.7192 23.2646 11.2168 23.2646 11.8523Z" fill="black"/>
</svg>
