<svg width="51" height="50" viewBox="0 0 51 50" fill="none" xmlns="http://www.w3.org/2000/svg">
<rect x="0.199997" width="50" height="50" rx="6" fill="#E0F5FE"/>
<path d="M32.4568 26H32.2244C31.1671 26 30.4266 26.0706 30.0027 26.2119C29.7111 26.2985 29.5835 26.4102 29.6199 26.5469L30.5838 26.9365L31.3631 27.2715C31.8781 27.4993 32.2176 27.7751 32.3816 28.0986L32.3953 28.1875C32.3953 28.2786 32.3406 28.5703 32.2312 29.0625C32.1264 29.5547 32.0011 29.9033 31.8553 30.1084C31.7824 30.2679 31.4314 30.5094 30.8025 30.833C30.1144 31.2067 29.2645 31.5075 28.2527 31.7354C26.9402 32.0316 25.5958 32.1797 24.2195 32.1797L23.201 32.1592L21.6355 32.1045L20.1863 31.9814C20.3185 31.4619 19.603 31.0426 18.0398 30.7236C16.4767 30.4092 15.1391 29.9557 14.0271 29.3633C12.9152 28.7754 12.2407 28.3424 12.0037 28.0645L13.9793 29.042C15.5971 29.7438 17.4064 30.2223 19.407 30.4775C21.1069 30.6872 22.4946 30.792 23.5701 30.792C24.6502 30.792 25.5503 30.7624 26.2703 30.7031C26.9904 30.6439 27.6421 30.5573 28.2254 30.4434C28.8133 30.3294 29.2986 30.2109 29.6814 30.0879C30.0643 29.9648 30.4197 29.8145 30.7478 29.6367C31.2309 29.3815 31.4998 29.1559 31.5545 28.96C31.5545 28.8506 31.3973 28.7025 31.0828 28.5156C30.8367 28.3789 30.6248 28.2764 30.4471 28.208L29.2234 27.7773C29.0366 27.6953 28.8885 27.6064 28.7791 27.5107C28.6697 27.4196 28.615 27.3262 28.615 27.2305C28.615 27.1439 28.6264 27.0436 28.6492 26.9297C28.6766 26.8158 28.7358 26.6357 28.827 26.3896C29.0138 25.9111 29.1368 25.6286 29.1961 25.542C29.3009 25.3962 29.5424 25.2275 29.9207 25.0361C30.4402 24.79 30.9803 24.6556 31.5408 24.6328H32.4432L32.4568 26ZM33.8377 24.2637C33.8969 24.2181 33.9516 24.1634 34.0018 24.0996C34.1795 23.8809 34.3025 23.5345 34.3709 23.0605C34.4575 22.4499 34.4552 21.7572 34.3641 20.9824C34.2729 20.2077 34.2114 19.6631 34.1795 19.3486C34.1613 18.9932 34.2114 18.4577 34.3299 17.7422C34.4529 17.0267 34.5623 16.5983 34.658 16.457C34.6945 16.416 34.7195 16.4206 34.7332 16.4707C34.7469 16.5163 34.7537 16.6598 34.7537 16.9014C34.7583 17.1383 34.8289 17.9678 34.9656 19.3896C35.1023 20.8115 35.1456 21.7936 35.0955 22.3359C35.0317 23.056 34.9087 23.6598 34.7264 24.1475C34.6853 24.2477 34.6398 24.348 34.5896 24.4482C34.8768 24.5439 35.2596 24.6146 35.7381 24.6602V25.9932C35.0955 25.9294 34.5737 25.7266 34.1727 25.3848C34.118 25.3392 34.0656 25.2913 34.0154 25.2412C33.9607 25.2913 33.9061 25.3392 33.8514 25.3848C33.4503 25.7266 32.9285 25.9294 32.2859 25.9932V24.6602C32.7645 24.6146 33.1473 24.5439 33.4344 24.4482C33.5984 24.3936 33.7329 24.332 33.8377 24.2637ZM41.5076 23.7783C41.0975 24.0107 40.4344 24.3343 39.5184 24.749C38.6023 25.1637 38.1215 25.3802 38.076 25.3984C37.0506 25.8451 36.2553 26.0456 35.6902 26V24.6191C36.4331 24.6283 36.9412 24.5895 37.2146 24.5029C36.9686 24.3936 36.7042 24.152 36.4217 23.7783C36.0617 23.3089 35.8816 22.7985 35.8816 22.2471C35.8816 21.6956 36.0753 21.2399 36.4627 20.8799C36.9184 20.4697 37.4585 20.2646 38.0828 20.2646C38.4793 20.2646 38.8826 20.3444 39.2928 20.5039C39.6209 20.6361 39.8875 20.7796 40.0926 20.9346C40.2612 21.0713 40.3455 21.1533 40.3455 21.1807C40.3409 21.1943 40.3318 21.2012 40.3182 21.2012C40.2863 21.2012 40.2111 21.1829 40.0926 21.1465C39.7553 21.0553 39.368 21.0098 38.9305 21.0098C38.3243 21.0098 37.741 21.0895 37.1805 21.249C36.6427 21.4131 36.3533 21.5771 36.3123 21.7412C36.367 22.1787 36.6268 22.6436 37.0916 23.1357C37.643 23.7054 38.2469 23.931 38.9031 23.8125C39.0809 23.8125 39.4728 23.6803 40.0789 23.416C41.2182 22.8965 41.8107 22.6299 41.8562 22.6162C41.9656 22.5661 42.0294 22.5524 42.0477 22.5752C41.4096 23.0173 41.2296 23.4183 41.5076 23.7783Z" fill="#001D29"/>
<path d="M14.032 19.0283C13.9181 19.4658 13.8725 19.762 13.8953 19.917C13.95 20.3044 14.1596 20.6895 14.5242 21.0723C14.8888 21.4505 15.381 21.6328 16.0008 21.6191V22.9863C15.0711 22.8268 14.424 22.4508 14.0594 21.8584C13.9135 21.6624 13.7928 21.373 13.6971 20.9902C13.5831 20.6758 13.5763 20.2018 13.6766 19.5684C13.6948 19.4499 13.7244 19.3132 13.7654 19.1582C13.4327 19.3496 13.2094 19.5023 13.0955 19.6162C12.8585 19.8714 12.7127 20.1927 12.658 20.5801C12.6033 20.9629 12.9542 22.1751 13.7107 24.2168C12.9633 22.6582 12.5395 21.5622 12.4393 20.9287C12.339 20.2952 12.3458 19.8213 12.4598 19.5068C12.5555 19.124 12.6762 18.8346 12.8221 18.6387C13.1502 18.1921 13.6629 17.8343 14.3602 17.5654L14.49 17.5586V18.8779L14.032 19.0283ZM22.8025 23.0342C22.1053 23.0387 21.563 22.5807 21.1756 21.6602C21.1482 22.0658 21.0389 22.4053 20.8475 22.6787C20.6697 22.9385 20.4783 23.0684 20.2732 23.0684C19.6398 23.0684 18.7898 22.5488 17.7234 21.5098C17.532 21.8561 17.3543 22.1182 17.1902 22.2959C16.9441 22.7243 16.5431 22.9613 15.9871 23.0068V21.6602C16.5522 21.6602 16.9624 21.4756 17.2176 21.1064C17.3862 20.9697 17.6141 20.7282 17.9012 20.3818C17.9969 20.2633 18.0857 20.2041 18.1678 20.2041C18.2179 20.2041 18.2612 20.2246 18.2977 20.2656C18.8536 19.5137 19.3982 19.1377 19.9314 19.1377C20.1867 19.1377 20.4874 19.2904 20.8338 19.5957C21.0206 19.7962 21.2098 19.9945 21.4012 20.1904C21.825 21.1885 22.2921 21.6533 22.8025 21.585V23.0342ZM20.3484 21.2568C20.3165 21.0609 20.2322 20.8786 20.0955 20.71C19.936 20.5231 19.7674 20.4297 19.5896 20.4297C19.4803 20.4297 19.3322 20.4753 19.1453 20.5664C18.9585 20.653 18.865 20.7145 18.865 20.751C18.9926 20.8604 19.2182 21.0199 19.5418 21.2295C19.92 21.4665 20.1639 21.585 20.2732 21.585C20.3507 21.585 20.3758 21.4756 20.3484 21.2568ZM24.4842 21.3662H24.532L25.8445 21.332L26.2615 21.3047L27.8816 20.9697C28.0275 20.9333 28.1437 20.8991 28.2303 20.8672C28.3169 20.8353 28.4604 20.7738 28.6609 20.6826C29.1486 20.4821 29.4083 20.3112 29.4402 20.1699C29.4585 20.1016 29.3969 19.9284 29.2557 19.6504C29.1189 19.3678 28.9458 19.1423 28.7361 18.9736L28.5379 18.8232C28.3647 18.7412 28.171 18.6751 27.9568 18.625L27.7791 18.6113C27.574 18.6113 27.3849 18.6706 27.2117 18.7891L26.5008 19.3701C25.7762 20.154 25.309 20.6507 25.0994 20.8604C24.8943 21.0609 24.6893 21.2295 24.4842 21.3662ZM26.0359 19.1924L27.0545 18.2969L27.4578 17.9756L28.0252 17.5244C28.1893 17.4424 28.3009 17.3923 28.3602 17.374C28.4194 17.3512 28.4946 17.3398 28.5857 17.3398C28.9458 17.3398 29.3103 17.5221 29.6795 17.8867C30.0486 18.2513 30.2332 18.6683 30.2332 19.1377C30.2332 19.4202 30.0965 19.8555 29.823 20.4434C29.5861 20.9447 29.3536 21.3411 29.1258 21.6328C28.825 22.0202 28.1574 22.3597 27.1228 22.6514C26.7172 22.7562 26.3185 22.8382 25.9266 22.8975C25.5346 22.9567 25.1837 22.9863 24.8738 22.9863H23.4998C22.602 24.3307 22.2055 24.8662 22.3103 24.5928C22.4152 24.3239 22.5359 24.0664 22.6727 23.8203C22.8048 23.5742 22.9506 23.2962 23.1102 22.9863H22.7V21.6055H23.2742C23.5158 21.487 23.9988 21.0677 24.7234 20.3477C25.4389 19.4453 25.8012 18.5498 25.8103 17.6611C25.7921 17.2464 25.7374 16.6517 25.6463 15.877C25.5551 15.1022 25.4936 14.5576 25.4617 14.2432C25.4389 13.8877 25.4891 13.3522 25.6121 12.6367C25.7352 11.9212 25.8422 11.4928 25.9334 11.3516C25.9699 11.3105 25.9949 11.3151 26.0086 11.3652C26.0268 11.4108 26.0359 11.5544 26.0359 11.7959C26.0405 12.0329 26.1111 12.8623 26.2478 14.2842C26.3846 15.7061 26.4256 16.6882 26.3709 17.2305C26.3208 17.9779 26.2091 18.6318 26.0359 19.1924ZM31.4773 21.9062C31.1811 21.3822 31.0649 20.8216 31.1287 20.2246C31.1971 19.623 31.2404 19.0853 31.2586 18.6113C31.1948 18.1966 31.1287 17.6019 31.0603 16.8271C30.992 16.0524 30.9419 15.5078 30.91 15.1934C30.8872 14.8379 30.9373 14.3024 31.0603 13.5869C31.1834 12.8714 31.2905 12.443 31.3816 12.3018C31.4181 12.2607 31.4432 12.2653 31.4568 12.3154C31.4751 12.361 31.4842 12.5046 31.4842 12.7461C31.4887 12.9831 31.5594 13.8125 31.6961 15.2344C31.8328 16.6562 31.8738 17.6383 31.8191 18.1807C31.7553 19.1377 31.7006 19.8737 31.6551 20.3887C31.6141 20.8991 31.7736 21.2409 32.1336 21.4141C32.4936 21.5827 32.9926 21.6556 33.6307 21.6328L33.6238 23C32.5939 22.9453 31.8784 22.5807 31.4773 21.9062ZM34.3689 13.8125C34.3826 13.8125 34.3917 13.8512 34.3963 13.9287C34.4008 14.0016 34.4487 14.0654 34.5398 14.1201C34.6264 14.1794 34.77 14.2728 34.9705 14.4004C35.1756 14.528 35.3351 14.6351 35.449 14.7217C35.563 14.8128 35.6131 14.9108 35.5994 15.0156C35.5857 15.1204 35.5607 15.2048 35.5242 15.2686C35.4969 15.3369 35.4376 15.4258 35.3465 15.5352C35.2553 15.64 35.1801 15.7152 35.1209 15.7607C35.0617 15.7926 35.0343 15.7653 35.0389 15.6787C35.0434 15.5921 34.9067 15.4531 34.6287 15.2617C34.3507 15.0749 34.173 14.9564 34.0955 14.9062C34.0226 14.8516 33.9588 14.7764 33.9041 14.6807C33.8813 14.6396 33.8676 14.5713 33.8631 14.4756C33.8631 14.3753 33.8995 14.2796 33.9725 14.1885C34.0499 14.1019 34.1206 14.0199 34.1844 13.9424C34.2527 13.8604 34.3143 13.8171 34.3689 13.8125ZM37.2674 19.9033C37.2674 20.6826 37.0258 21.3092 36.5428 21.7832C35.7407 22.5944 34.7677 23 33.6238 23V21.6191C34.2026 21.6283 34.8019 21.5348 35.4217 21.3389C36.0415 21.1429 36.4881 20.8763 36.7615 20.5391C36.8527 20.3249 36.7456 20.1471 36.4402 20.0059C36.1714 19.8691 35.8842 19.8008 35.5789 19.8008H34.7654C34.4601 19.8008 34.2186 19.7028 34.0408 19.5068C33.8631 19.3063 33.7742 19.0488 33.7742 18.7344C33.7742 18.3105 33.92 17.8844 34.2117 17.4561C34.5034 17.0231 34.8064 16.8066 35.1209 16.8066C35.6268 16.8066 36.1007 17.0938 36.5428 17.668C37.0258 18.2969 37.2674 19.042 37.2674 19.9033ZM35.9617 18.6729C35.6564 18.2171 35.3169 17.9893 34.9432 17.9893C34.6834 17.9893 34.5535 18.0781 34.5535 18.2559C34.5535 18.4473 34.7176 18.5658 35.0457 18.6113C35.2417 18.6113 35.547 18.6318 35.9617 18.6729Z" fill="#001D29"/>
</svg>
